<svg id="Layer_1" data-name="Layer 1" xmlns="http://www.w3.org/2000/svg" viewBox="0 0 250 34.93"><defs><style>.cls-1{fill:#4285f4;}.cls-2{fill:#ea4335;}.cls-3{fill:#fbbc05;}.cls-4{fill:#34a853;}</style></defs><title>GoogleMobileLogo</title><path class="cls-1" d="M6.81,45.41A13.24,13.24,0,0,1,0,33.65,13.24,13.24,0,0,1,6.81,21.9a13.71,13.71,0,0,1,6.84-1.75,14.11,14.11,0,0,1,5.55,1.06,12.4,12.4,0,0,1,4.31,3l-3.36,3.28a8.82,8.82,0,0,0-2.87-2.06,9.23,9.23,0,0,0-3.66-.68,8.89,8.89,0,0,0-4.37,1.1A8.08,8.08,0,0,0,6.09,29a9.68,9.68,0,0,0,0,9.28,8.27,8.27,0,0,0,3.2,3.15,9,9,0,0,0,4.39,1.1,8.38,8.38,0,0,0,5.92-2.13,6.44,6.44,0,0,0,1.27-1.66,8.41,8.41,0,0,0,.79-2.21H13.54V32.39H26.22a9.28,9.28,0,0,1,.25,2.27,14.46,14.46,0,0,1-.77,4.77,10.71,10.71,0,0,1-2.37,3.87,11.4,11.4,0,0,1-4.19,2.87,14.59,14.59,0,0,1-5.49,1A13.71,13.71,0,0,1,6.81,45.41Z" transform="translate(0 -20.04)"/><path class="cls-1" d="M34,45.88a9.14,9.14,0,0,1-3.48-3.5,10.6,10.6,0,0,1,0-10A9.06,9.06,0,0,1,34,28.87a10.7,10.7,0,0,1,10.15,0,9.08,9.08,0,0,1,3.49,3.52,10.68,10.68,0,0,1,0,10,9.17,9.17,0,0,1-3.49,3.5,10.7,10.7,0,0,1-10.15,0Zm7.62-3.74a4.69,4.69,0,0,0,1.84-1.88,5.8,5.8,0,0,0,.69-2.89,5.73,5.73,0,0,0-.69-2.85,4.76,4.76,0,0,0-1.84-1.88,5.23,5.23,0,0,0-5,0,4.94,4.94,0,0,0-1.86,1.88A5.63,5.63,0,0,0,34,37.37a5.71,5.71,0,0,0,.71,2.87,4.79,4.79,0,0,0,1.86,1.9,5.23,5.23,0,0,0,5,0Z" transform="translate(0 -20.04)"/><path class="cls-2" d="M56.23,45.88a9.14,9.14,0,0,1-3.48-3.5,10.6,10.6,0,0,1,0-10,9.06,9.06,0,0,1,3.48-3.52,10,10,0,0,1,5.1-1.28,9.93,9.93,0,0,1,5,1.28,9,9,0,0,1,3.49,3.52,10.68,10.68,0,0,1,0,10,9.1,9.1,0,0,1-3.49,3.5,10,10,0,0,1-5,1.28A10.14,10.14,0,0,1,56.23,45.88Zm7.62-3.74a4.72,4.72,0,0,0,1.85-1.88,5.91,5.91,0,0,0,.68-2.89,5.83,5.83,0,0,0-.68-2.85,4.78,4.78,0,0,0-1.85-1.88,5.23,5.23,0,0,0-5.05,0,4.94,4.94,0,0,0-1.86,1.88,5.63,5.63,0,0,0-.71,2.85,5.71,5.71,0,0,0,.71,2.87,4.79,4.79,0,0,0,1.86,1.9,5.23,5.23,0,0,0,5.05,0Z" transform="translate(0 -20.04)"/><path class="cls-2" d="M77.4,53.39a7.79,7.79,0,0,1-3.11-3.77l4.44-1.81a4.73,4.73,0,0,0,4.48,3,4.72,4.72,0,0,0,3.56-1.37,5.4,5.4,0,0,0,1.32-3.9V44.06H87.8a5.65,5.65,0,0,1-2.28,1.87,7.45,7.45,0,0,1-3.21.65,8.14,8.14,0,0,1-4.24-1.17,8.57,8.57,0,0,1-3.16-3.32,10.12,10.12,0,0,1-1.2-5,10.11,10.11,0,0,1,1.2-5,8.57,8.57,0,0,1,3.16-3.32,8.14,8.14,0,0,1,4.24-1.17,7.45,7.45,0,0,1,3.21.65,5.65,5.65,0,0,1,2.28,1.87h.29V28.16h4.55V45.32a10.79,10.79,0,0,1-1.16,5.13,8.06,8.06,0,0,1-3.28,3.34,10.22,10.22,0,0,1-5,1.17A10.09,10.09,0,0,1,77.4,53.39Zm9.28-12.5a5.09,5.09,0,0,0,1.41-3.81,5.13,5.13,0,0,0-1.39-3.84,5,5,0,0,0-6.85,0,5.07,5.07,0,0,0-1.4,3.82,5.08,5.08,0,0,0,1.4,3.83,4.73,4.73,0,0,0,3.43,1.38A4.66,4.66,0,0,0,86.68,40.89Z" transform="translate(0 -20.04)"/><path class="cls-3" d="M97.26,20.72H102V46.58H97.26Z" transform="translate(0 -20.04)"/><path class="cls-3" d="M110.16,45.9a9.11,9.11,0,0,1-3.45-3.49,10.48,10.48,0,0,1,0-9.89,9.46,9.46,0,0,1,3.39-3.6,9.06,9.06,0,0,1,4.84-1.33,9.52,9.52,0,0,1,4.92,1.22A8,8,0,0,1,123,32.17,10.44,10.44,0,0,1,124,36.9a11.45,11.45,0,0,1-.11,1.59H110.08a5.18,5.18,0,0,0,1.76,3.34A5.09,5.09,0,0,0,115.18,43a5.36,5.36,0,0,0,2.8-.7,5.21,5.21,0,0,0,1.86-1.9l3.82,1.88a9.23,9.23,0,0,1-8.56,4.91A9.73,9.73,0,0,1,110.16,45.9Zm9.31-10.77a3.49,3.49,0,0,0-.63-1.71A4.33,4.33,0,0,0,117.29,32a4.7,4.7,0,0,0-2.33-.56,4.46,4.46,0,0,0-2.91,1,5.65,5.65,0,0,0-1.75,2.69Z" transform="translate(0 -20.04)"/><path class="cls-1" d="M136.77,20.72h6.29l6.86,18.17h.29l6.86-18.17h6.32V46.58h-4.84V33.83l.29-4.29h-.29l-6.57,17h-3.79l-6.61-17h-.29l.29,4.29V46.58h-4.81Z" transform="translate(0 -20.04)"/><path class="cls-1" d="M172.35,45.88a9.17,9.17,0,0,1-3.49-3.5,10.68,10.68,0,0,1,0-10,9.08,9.08,0,0,1,3.49-3.52,10.7,10.7,0,0,1,10.15,0A9.06,9.06,0,0,1,186,32.39a10.6,10.6,0,0,1,0,10,9.14,9.14,0,0,1-3.48,3.5,10.7,10.7,0,0,1-10.15,0ZM180,42.14a4.76,4.76,0,0,0,1.84-1.88,5.8,5.8,0,0,0,.69-2.89,5.73,5.73,0,0,0-.69-2.85A4.82,4.82,0,0,0,180,32.64a5.25,5.25,0,0,0-5.06,0,4.94,4.94,0,0,0-1.86,1.88,5.63,5.63,0,0,0-.7,2.85,5.7,5.7,0,0,0,.7,2.87,4.79,4.79,0,0,0,1.86,1.9,5.25,5.25,0,0,0,5.06,0Z" transform="translate(0 -20.04)"/><path class="cls-4" d="M197.58,46.37a5.61,5.61,0,0,1-2.19-2h-.29v2.2h-4.44V20.72h4.73V27.8l-.29,2.6h.29a6.12,6.12,0,0,1,2.2-2,6.73,6.73,0,0,1,3.33-.81,8.51,8.51,0,0,1,7.73,4.73,10.85,10.85,0,0,1,1.15,5,10.84,10.84,0,0,1-1.15,5.08,8.72,8.72,0,0,1-3.2,3.47,8.52,8.52,0,0,1-4.53,1.24A6.87,6.87,0,0,1,197.58,46.37Zm5-4.27a5,5,0,0,0,1.84-1.91,6.09,6.09,0,0,0,0-5.63,5,5,0,0,0-1.84-1.9,4.85,4.85,0,0,0-2.49-.67,4.79,4.79,0,0,0-2.46.67,5,5,0,0,0-1.84,1.9,6.09,6.09,0,0,0,0,5.63,5,5,0,0,0,1.84,1.91,4.72,4.72,0,0,0,2.46.69A4.77,4.77,0,0,0,202.58,42.1Z" transform="translate(0 -20.04)"/><path class="cls-4" d="M213.78,25.24a2.94,2.94,0,0,1-.91-2.17,2.88,2.88,0,0,1,.91-2.15,3,3,0,0,1,2.16-.88,3,3,0,0,1,3,3,3,3,0,0,1-.89,2.17,2.89,2.89,0,0,1-2.15.9A3,3,0,0,1,213.78,25.24Zm-.22,2.92h4.73V46.58h-4.73Z" transform="translate(0 -20.04)"/><path class="cls-2" d="M223.24,20.72H228V46.58h-4.73Z" transform="translate(0 -20.04)"/><path class="cls-2" d="M236.13,45.9a9.11,9.11,0,0,1-3.45-3.49,10.55,10.55,0,0,1,0-9.89,9.41,9.41,0,0,1,3.4-3.6,9,9,0,0,1,4.84-1.33,9.49,9.49,0,0,1,4.91,1.22,8,8,0,0,1,3.12,3.36A10.44,10.44,0,0,1,250,36.9a11.45,11.45,0,0,1-.11,1.59H236.06a5.17,5.17,0,0,0,1.75,3.34A5.1,5.1,0,0,0,241.15,43a5.32,5.32,0,0,0,2.8-.7,5.21,5.21,0,0,0,1.86-1.9l3.83,1.88a9.24,9.24,0,0,1-8.56,4.91A9.8,9.8,0,0,1,236.13,45.9Zm9.32-10.77a3.7,3.7,0,0,0-.63-1.71A4.36,4.36,0,0,0,243.26,32a4.67,4.67,0,0,0-2.33-.56,4.42,4.42,0,0,0-2.9,1,5.58,5.58,0,0,0-1.75,2.69Z" transform="translate(0 -20.04)"/></svg>