<?xml version="1.0" encoding="utf-8"?>
<!-- Generator: Adobe Illustrator 23.0.0, SVG Export Plug-In . SVG Version: 6.00 Build 0)  -->
<svg version="1.1" id="Layer_1" xmlns="http://www.w3.org/2000/svg" xmlns:xlink="http://www.w3.org/1999/xlink" x="0px" y="0px"
	 viewBox="0 0 150 45" style="enable-background:new 0 0 150 45;" xml:space="preserve">
<style type="text/css">
	.st0{fill:#4285F4;}
	.st1{fill:#EA4335;}
	.st2{fill:#FBBC05;}
	.st3{fill:#34A853;}
</style>
<g>
	<g>
		<path class="st0" d="M8.61,38.01c-2.64-1.48-4.73-3.52-6.28-6.12C0.78,29.29,0,26.37,0,23.14c0-3.23,0.78-6.15,2.33-8.75
			c1.55-2.6,3.65-4.64,6.28-6.12c2.63-1.48,5.52-2.22,8.66-2.22c2.56,0,4.9,0.45,7.01,1.35c2.12,0.9,3.94,2.17,5.46,3.82l-4.25,4.16
			c-1.1-1.16-2.31-2.03-3.63-2.6c-1.32-0.58-2.87-0.87-4.64-0.87c-2.01,0-3.85,0.46-5.53,1.39c-1.68,0.93-3.01,2.25-4,3.98
			c-0.99,1.72-1.48,3.68-1.48,5.87s0.5,4.15,1.51,5.87c1.01,1.72,2.35,3.05,4.04,3.98s3.54,1.39,5.55,1.39c3.05,0,5.54-0.9,7.49-2.7
			c0.61-0.55,1.14-1.25,1.6-2.1c0.46-0.85,0.79-1.78,1.01-2.79H17.13v-5.25h16.04c0.21,0.85,0.32,1.81,0.32,2.88
			c0,2.16-0.33,4.17-0.98,6.03c-0.66,1.86-1.65,3.49-2.99,4.89c-1.46,1.58-3.23,2.8-5.3,3.63c-2.07,0.84-4.39,1.26-6.94,1.26
			C14.13,40.23,11.25,39.49,8.61,38.01z"/>
		<path class="st1" d="M43.04,38.61c-1.89-1.08-3.36-2.56-4.41-4.43c-1.05-1.87-1.58-3.98-1.58-6.33c0-2.31,0.53-4.42,1.58-6.31
			c1.05-1.89,2.52-3.37,4.41-4.45c1.89-1.08,4.04-1.62,6.44-1.62c2.38,0,4.51,0.54,6.4,1.62c1.89,1.08,3.36,2.57,4.41,4.45
			c1.05,1.89,1.58,3.99,1.58,6.31c0,2.35-0.53,4.46-1.58,6.33c-1.05,1.87-2.52,3.35-4.41,4.43c-1.89,1.08-4.02,1.62-6.4,1.62
			C47.08,40.23,44.93,39.69,43.04,38.61z M52.68,33.88c0.97-0.55,1.75-1.34,2.33-2.38c0.58-1.04,0.87-2.25,0.87-3.66
			c0-1.37-0.29-2.57-0.87-3.61c-0.58-1.04-1.36-1.83-2.33-2.38c-0.98-0.55-2.04-0.82-3.2-0.82c-1.16,0-2.22,0.27-3.2,0.82
			c-0.98,0.55-1.76,1.34-2.35,2.38c-0.59,1.04-0.89,2.24-0.89,3.61c0,1.37,0.3,2.58,0.89,3.63c0.59,1.05,1.38,1.85,2.35,2.4
			c0.97,0.55,2.04,0.82,3.2,0.82C50.64,34.7,51.71,34.43,52.68,33.88z"/>
		<path class="st2" d="M66.62,12.49c-0.76-0.76-1.14-1.67-1.14-2.74c0-1.07,0.38-1.97,1.14-2.72c0.76-0.75,1.67-1.12,2.74-1.12
			c1.07,0,1.97,0.37,2.72,1.12c0.75,0.75,1.12,1.65,1.12,2.72c0,1.07-0.37,1.98-1.12,2.74c-0.75,0.76-1.65,1.14-2.72,1.14
			C68.29,13.64,67.38,13.26,66.62,12.49z M66.34,16.19h5.99v23.3h-5.99V16.19z"/>
		<path class="st0" d="M77.4,34.61l12.15-13.34H77.76v-5.07h19.14v4.89L84.75,34.43h12.52v5.07H77.4V34.61z"/>
		<path class="st3" d="M106.14,38.63c-1.86-1.07-3.31-2.54-4.36-4.41c-1.05-1.87-1.58-3.98-1.58-6.33c0-2.22,0.52-4.29,1.55-6.19
			c1.03-1.9,2.47-3.42,4.29-4.55c1.83-1.13,3.87-1.69,6.12-1.69c2.41,0,4.48,0.52,6.21,1.55c1.74,1.04,3.05,2.45,3.95,4.25
			c0.9,1.8,1.35,3.79,1.35,5.99c0,0.7-0.05,1.37-0.14,2.01h-17.5c0.3,1.86,1.04,3.27,2.22,4.23c1.17,0.96,2.58,1.44,4.23,1.44
			c1.37,0,2.55-0.3,3.54-0.89c0.99-0.59,1.77-1.39,2.35-2.4l4.84,2.38c-2.38,4.14-5.99,6.21-10.83,6.21
			C110.08,40.23,108,39.69,106.14,38.63z M117.93,25.01c-0.06-0.73-0.33-1.45-0.8-2.17c-0.47-0.72-1.13-1.31-1.96-1.78
			c-0.84-0.47-1.82-0.71-2.95-0.71c-1.43,0-2.66,0.42-3.68,1.26c-1.02,0.84-1.76,1.97-2.22,3.4H117.93z"/>
		<path class="st1" d="M128.3,16.19h5.62v2.92h0.37c0.7-1.13,1.69-2.02,2.97-2.67c1.28-0.65,2.66-0.98,4.16-0.98
			c2.8,0,4.94,0.85,6.4,2.56c1.46,1.71,2.19,4.04,2.19,6.99V39.5h-5.99V25.74c0-1.49-0.38-2.65-1.14-3.47
			c-0.76-0.82-1.83-1.23-3.2-1.23c-1.61,0-2.92,0.62-3.91,1.87c-0.99,1.25-1.48,2.82-1.48,4.71V39.5h-5.99V16.19z"/>
	</g>
	<path class="st2" d="M149.86,12.1c-0.2-0.36-0.58-0.58-0.98-0.58h-2.71l0.46-5.53c0.04-0.51-0.27-0.99-0.75-1.16
		c-0.48-0.17-1.02,0.01-1.31,0.44l-5.62,8.44c-0.23,0.35-0.25,0.79-0.06,1.15c0.2,0.37,0.58,0.59,0.99,0.59h2.72l-0.47,6.1
		c-0.04,0.52,0.28,0.99,0.77,1.15c0.12,0.04,0.23,0.06,0.35,0.06c0.38,0,0.74-0.19,0.95-0.53l5.62-9
		C150.05,12.9,150.06,12.46,149.86,12.1L149.86,12.1z"/>
</g>
</svg>
